<?xml version="1.0" encoding="utf-8"?>
<!-- Generator: Adobe Illustrator 25.2.0, SVG Export Plug-In . SVG Version: 6.00 Build 0)  -->
<svg version="1.1" id="Layer_1" xmlns="http://www.w3.org/2000/svg" xmlns:xlink="http://www.w3.org/1999/xlink" x="0px" y="0px"
	 viewBox="0 0 1280 1024" style="enable-background:new 0 0 1280 1024;" xml:space="preserve">
<style type="text/css">
	.st0{fill:url(#SVGID_1_);}
	.st1{fill:url(#SVGID_2_);}
	.st2{fill:url(#SVGID_3_);}
	.st3{fill:url(#SVGID_4_);}
	.st4{fill:url(#SVGID_5_);}
	.st5{fill:url(#SVGID_6_);}
	.st6{fill:url(#SVGID_7_);}
	.st7{fill:url(#SVGID_8_);}
	.st8{fill:url(#SVGID_9_);}
	.st9{fill:url(#SVGID_10_);}
	.st10{fill:url(#SVGID_11_);}
	.st11{fill:url(#SVGID_12_);}
</style>
<image style="overflow:visible;" width="2114" height="1510" xlink:href="lanyards.jpeg"  transform="matrix(0.5729 0 0 0.5729 34.4224 79.4446)">
</image>
<linearGradient id="SVGID_1_" gradientUnits="userSpaceOnUse" x1="866.8526" y1="-67.5398" x2="966.6384" y2="-67.5398" gradientTransform="matrix(0.8989 -0.4383 -0.4383 -0.8989 295.2169 1235.9534)">
	<stop  offset="0" style="stop-color:#8CAD76"/>
	<stop  offset="0.1814" style="stop-color:#83A76B"/>
	<stop  offset="0.4966" style="stop-color:#6C984F"/>
	<stop  offset="0.9055" style="stop-color:#478021"/>
	<stop  offset="0.9949" style="stop-color:#3E7A16"/>
</linearGradient>
<path class="st0" d="M1113.8,885.5c7.3-11.2,20.2-30.8,41.7-32.4c17.8-1.3,37.1,10,37.2,19.5c0.1,6.8-9.8,7.3-17.6,20.6
	c-7.3,12.5-2.3,18.1-8.8,28.4c-6,9.5-19.5,19.3-35,17c-12.7-1.9-24.9-11.6-27.4-24.2C1101.7,903.9,1107.3,895.4,1113.8,885.5z"/>
<linearGradient id="SVGID_2_" gradientUnits="userSpaceOnUse" x1="876.5424" y1="-74.7819" x2="976.3282" y2="-74.7819" gradientTransform="matrix(0.8989 -0.4383 -0.4383 -0.8989 295.2169 1235.9534)">
	<stop  offset="5.056255e-03" style="stop-color:#3E7A16"/>
	<stop  offset="9.450000e-02" style="stop-color:#478021"/>
	<stop  offset="0.5034" style="stop-color:#6C984F"/>
	<stop  offset="0.8186" style="stop-color:#83A76B"/>
	<stop  offset="1" style="stop-color:#8CAD76"/>
</linearGradient>
<path class="st1" d="M1125.7,887.8c7.3-11.2,20.2-30.8,41.7-32.4c17.8-1.3,37.1,10,37.2,19.5c0.1,6.8-9.8,7.3-17.6,20.6
	c-7.3,12.5-2.3,18.1-8.8,28.4c-6,9.5-19.5,19.3-35,17c-12.7-1.9-24.9-11.6-27.4-24.2C1113.6,906.2,1119.2,897.7,1125.7,887.8z"/>
<linearGradient id="SVGID_3_" gradientUnits="userSpaceOnUse" x1="723.5822" y1="-142.5151" x2="948.634" y2="-142.5151" gradientTransform="matrix(0.8989 -0.4383 -0.4383 -0.8989 295.2169 1235.9534)">
	<stop  offset="5.056255e-03" style="stop-color:#25167A"/>
	<stop  offset="0.1679" style="stop-color:#282889"/>
	<stop  offset="0.4941" style="stop-color:#3056B0"/>
	<stop  offset="0.9497" style="stop-color:#3DA0EE"/>
	<stop  offset="1" style="stop-color:#3FA9F5"/>
</linearGradient>
<path class="st2" d="M1092,960.6c-68,7.3-84.9,11.6-92.9,26.2c-10.6,19.4-1,48.1,14.5,64.3c29.8,31.1,82.1,17.1,95.4,13.5
	c66.5-17.8,118.3-84.6,105.8-107.2C1209.7,948.3,1170.4,952.3,1092,960.6z"/>
<linearGradient id="SVGID_4_" gradientUnits="userSpaceOnUse" x1="713.0298" y1="-152.522" x2="938.0816" y2="-152.522" gradientTransform="matrix(0.8989 -0.4383 -0.4383 -0.8989 295.2169 1235.9534)">
	<stop  offset="0" style="stop-color:#3FA9F5"/>
	<stop  offset="5.030000e-02" style="stop-color:#3DA0EE"/>
	<stop  offset="0.5059" style="stop-color:#3056B0"/>
	<stop  offset="0.8321" style="stop-color:#282889"/>
	<stop  offset="0.9949" style="stop-color:#25167A"/>
</linearGradient>
<path class="st3" d="M1086.9,974.3c-68,7.3-84.9,11.6-92.9,26.2c-10.6,19.4-1,48.1,14.5,64.3c29.8,31.1,82.1,17.1,95.4,13.5
	c66.5-17.8,118.3-84.6,105.8-107.2C1204.6,961.9,1165.3,965.9,1086.9,974.3z"/>
<linearGradient id="SVGID_5_" gradientUnits="userSpaceOnUse" x1="336.2521" y1="1272.8591" x2="436.0379" y2="1272.8591" gradientTransform="matrix(-0.8476 0.5306 0.5306 0.8476 913.5991 -270.9134)">
	<stop  offset="0" style="stop-color:#8CAD76"/>
	<stop  offset="0.1814" style="stop-color:#83A76B"/>
	<stop  offset="0.4966" style="stop-color:#6C984F"/>
	<stop  offset="0.9055" style="stop-color:#478021"/>
	<stop  offset="0.9949" style="stop-color:#3E7A16"/>
</linearGradient>
<path class="st4" d="M1297.5,1018.5c-6.1,11.9-16.9,32.7-38,36.6c-17.5,3.2-37.9-6-39-15.4c-0.8-6.8,8.9-8.3,15.3-22.4
	c6-13.2,0.4-18.2,5.8-29.2c5-10.1,17.4-21.3,33-20.6c12.8,0.5,26,8.9,29.8,21.2C1307.6,998.9,1303,1008,1297.5,1018.5z"/>
<linearGradient id="SVGID_6_" gradientUnits="userSpaceOnUse" x1="345.9419" y1="1265.6171" x2="445.7278" y2="1265.6171" gradientTransform="matrix(-0.8476 0.5306 0.5306 0.8476 913.5991 -270.9134)">
	<stop  offset="5.056255e-03" style="stop-color:#3E7A16"/>
	<stop  offset="9.450000e-02" style="stop-color:#478021"/>
	<stop  offset="0.5034" style="stop-color:#6C984F"/>
	<stop  offset="0.8186" style="stop-color:#83A76B"/>
	<stop  offset="1" style="stop-color:#8CAD76"/>
</linearGradient>
<path class="st5" d="M1285.5,1017.5c-6.1,11.9-16.9,32.7-38,36.6c-17.5,3.2-37.9-6-39-15.4c-0.8-6.8,8.9-8.3,15.3-22.4
	c6-13.2,0.4-18.2,5.8-29.2c5-10.1,17.4-21.3,33-20.6c12.8,0.5,26,8.9,29.8,21.2C1295.6,997.9,1290.9,1007,1285.5,1017.5z"/>
<linearGradient id="SVGID_7_" gradientUnits="userSpaceOnUse" x1="755.1472" y1="-94.3043" x2="869.1984" y2="-94.3043" gradientTransform="matrix(-0.8115 0.5844 0.5844 0.8115 817.1379 -252.7837)">
	<stop  offset="0" style="stop-color:#8CAD76"/>
	<stop  offset="0.1814" style="stop-color:#83A76B"/>
	<stop  offset="0.4966" style="stop-color:#6C984F"/>
	<stop  offset="0.9055" style="stop-color:#478021"/>
	<stop  offset="0.9949" style="stop-color:#3E7A16"/>
</linearGradient>
<path class="st6" d="M144.3,149.1c-6.1,14-16.8,38.6-40.6,44.5c-19.8,5-43.7-4.1-45.6-14.7c-1.4-7.6,9.6-10.1,15.8-26.7
	c5.8-15.5-0.9-20.8,4.4-33.7c4.9-11.9,18.2-25.5,36.1-26c14.7-0.4,30.3,8.3,35.6,22C154.3,126,149.6,136.7,144.3,149.1z"/>
<linearGradient id="SVGID_8_" gradientUnits="userSpaceOnUse" x1="766.2223" y1="-102.5817" x2="880.2735" y2="-102.5817" gradientTransform="matrix(-0.8115 0.5844 0.5844 0.8115 817.1379 -252.7837)">
	<stop  offset="5.056255e-03" style="stop-color:#3E7A16"/>
	<stop  offset="9.450000e-02" style="stop-color:#478021"/>
	<stop  offset="0.5034" style="stop-color:#6C984F"/>
	<stop  offset="0.8186" style="stop-color:#83A76B"/>
	<stop  offset="1" style="stop-color:#8CAD76"/>
</linearGradient>
<path class="st7" d="M130.4,148.8c-6.1,14-16.8,38.6-40.6,44.5c-19.8,5-43.7-4.1-45.6-14.7C42.8,171,53.8,168.6,60,152
	c5.8-15.5-0.9-20.8,4.4-33.7c4.9-11.9,18.2-25.5,36.1-26c14.7-0.4,30.3,8.3,35.6,22C140.5,125.8,135.8,136.5,130.4,148.8z"/>
<linearGradient id="SVGID_9_" gradientUnits="userSpaceOnUse" x1="591.3948" y1="-179.9981" x2="848.6201" y2="-179.9981" gradientTransform="matrix(-0.8115 0.5844 0.5844 0.8115 817.1379 -252.7837)">
	<stop  offset="5.056255e-03" style="stop-color:#25167A"/>
	<stop  offset="0.1679" style="stop-color:#282889"/>
	<stop  offset="0.4941" style="stop-color:#3056B0"/>
	<stop  offset="0.9497" style="stop-color:#3DA0EE"/>
	<stop  offset="1" style="stop-color:#3FA9F5"/>
</linearGradient>
<path class="st8" d="M154.2,60.2c75.2-21.4,93.4-29.5,99.6-47.5c8.2-23.9-8.2-54.4-28.9-69.6c-39.6-29.3-95.7-3.4-110.1,3.2
	C43.4-20.7-2,64.5,16.5,87.5C24.1,97,67.5,84.9,154.2,60.2z"/>
<linearGradient id="SVGID_10_" gradientUnits="userSpaceOnUse" x1="579.3339" y1="-191.4356" x2="836.5591" y2="-191.4356" gradientTransform="matrix(-0.8115 0.5844 0.5844 0.8115 817.1379 -252.7837)">
	<stop  offset="0" style="stop-color:#3FA9F5"/>
	<stop  offset="5.030000e-02" style="stop-color:#3DA0EE"/>
	<stop  offset="0.5059" style="stop-color:#3056B0"/>
	<stop  offset="0.8321" style="stop-color:#282889"/>
	<stop  offset="0.9949" style="stop-color:#25167A"/>
</linearGradient>
<path class="st9" d="M157.3,43.9c75.2-21.4,93.4-29.5,99.6-47.5c8.2-23.9-8.2-54.4-28.9-69.6c-39.6-29.3-95.7-3.4-110.1,3.2
	C46.6-37.1,1.1,48.2,19.6,71.2C27.2,80.6,70.6,68.5,157.3,43.9z"/>
<linearGradient id="SVGID_11_" gradientUnits="userSpaceOnUse" x1="431.2028" y1="1311.3002" x2="545.254" y2="1311.3002" gradientTransform="matrix(0.7453 -0.6667 -0.6667 -0.7453 463.3696 1337.1509)">
	<stop  offset="0" style="stop-color:#8CAD76"/>
	<stop  offset="0.1814" style="stop-color:#83A76B"/>
	<stop  offset="0.4966" style="stop-color:#6C984F"/>
	<stop  offset="0.9055" style="stop-color:#478021"/>
	<stop  offset="0.9949" style="stop-color:#3E7A16"/>
</linearGradient>
<path class="st10" d="M-88.5,34.9c4.6-14.6,12.6-40.1,35.7-48.6c19.1-7,43.9-0.6,46.9,9.8c2.2,7.5-8.5,11.1-12.9,28.2
	c-4.2,16,3.1,20.6-0.9,34C-23.3,70.7-35.1,85.7-52.8,88c-14.5,1.9-31-5-37.7-18.1C-96.1,58.9-92.6,47.8-88.5,34.9z"/>
<linearGradient id="SVGID_12_" gradientUnits="userSpaceOnUse" x1="442.2779" y1="1303.0228" x2="556.3291" y2="1303.0228" gradientTransform="matrix(0.7453 -0.6667 -0.6667 -0.7453 463.3696 1337.1509)">
	<stop  offset="5.056255e-03" style="stop-color:#3E7A16"/>
	<stop  offset="9.450000e-02" style="stop-color:#478021"/>
	<stop  offset="0.5034" style="stop-color:#6C984F"/>
	<stop  offset="0.8186" style="stop-color:#83A76B"/>
	<stop  offset="1" style="stop-color:#8CAD76"/>
</linearGradient>
<path class="st11" d="M-74.7,33.7C-70.1,19.2-62.1-6.4-39-14.9c19.1-7,43.9-0.6,46.9,9.8C10.1,2.4-0.6,6-5,23.2
	c-4.2,16,3.1,20.6-0.9,34C-9.5,69.5-21.3,84.5-39,86.8c-14.5,1.9-31-5-37.7-18.1C-82.3,57.7-78.8,46.6-74.7,33.7z"/>
</svg>
