<?xml version="1.0" encoding="utf-8"?>
<!-- Generator: Adobe Illustrator 25.2.0, SVG Export Plug-In . SVG Version: 6.00 Build 0)  -->
<svg version="1.1" id="Layer_1" xmlns="http://www.w3.org/2000/svg" xmlns:xlink="http://www.w3.org/1999/xlink" x="0px" y="0px"
	 viewBox="0 0 1280 1024" style="enable-background:new 0 0 1280 1024;" xml:space="preserve">
<style type="text/css">
	.st0{fill:url(#SVGID_1_);}
	.st1{fill:url(#SVGID_2_);}
	.st2{fill:url(#SVGID_3_);}
	.st3{fill:url(#SVGID_4_);}
	.st4{fill:url(#SVGID_5_);}
	.st5{fill:url(#SVGID_6_);}
</style>
<linearGradient id="SVGID_1_" gradientUnits="userSpaceOnUse" x1="522.5928" y1="655.329" x2="601.269" y2="655.329" gradientTransform="matrix(1 0 0 -1 0 1024)">
	<stop  offset="0" style="stop-color:#8CAD76"/>
	<stop  offset="0.1814" style="stop-color:#83A76B"/>
	<stop  offset="0.4966" style="stop-color:#6C984F"/>
	<stop  offset="0.9055" style="stop-color:#478021"/>
	<stop  offset="0.9949" style="stop-color:#3E7A16"/>
</linearGradient>
<path class="st0" d="M540.3,349.9c9.1-5.4,25-14.8,40.7-8.5c13.1,5.2,22.8,19.9,19.6,26.6c-2.3,4.8-9.4,1.8-19.6,8.5
	c-9.5,6.3-7.9,12-16.1,17.1c-7.6,4.7-20.5,7-30.7,0c-8.3-5.7-13.6-16.8-11.1-26.6C525.4,358.8,532.3,354.7,540.3,349.9z"/>
<linearGradient id="SVGID_2_" gradientUnits="userSpaceOnUse" x1="530.2327" y1="649.619" x2="608.909" y2="649.619" gradientTransform="matrix(1 0 0 -1 0 1024)">
	<stop  offset="5.056255e-03" style="stop-color:#3E7A16"/>
	<stop  offset="9.450000e-02" style="stop-color:#478021"/>
	<stop  offset="0.5034" style="stop-color:#6C984F"/>
	<stop  offset="0.8186" style="stop-color:#83A76B"/>
	<stop  offset="1" style="stop-color:#8CAD76"/>
</linearGradient>
<path class="st1" d="M548,355.6c9.1-5.4,25-14.8,40.7-8.5c13.1,5.2,22.8,19.9,19.6,26.6c-2.3,4.8-9.4,1.8-19.6,8.5
	c-9.5,6.3-7.9,12-16.1,17.1c-7.6,4.7-20.5,7-30.7,0c-8.3-5.7-13.6-16.9-11.1-26.6C533.1,364.5,540,360.4,548,355.6z"/>
<linearGradient id="SVGID_3_" gradientUnits="userSpaceOnUse" x1="409.631" y1="596.2146" x2="587.0734" y2="596.2146" gradientTransform="matrix(1 0 0 -1 0 1024)">
	<stop  offset="5.056255e-03" style="stop-color:#25167A"/>
	<stop  offset="0.1679" style="stop-color:#282889"/>
	<stop  offset="0.4941" style="stop-color:#3056B0"/>
	<stop  offset="0.9497" style="stop-color:#3DA0EE"/>
	<stop  offset="1" style="stop-color:#3FA9F5"/>
</linearGradient>
<path class="st2" d="M498.9,395.6c-50.7-18.4-64.2-21.1-74.9-13.5c-14.2,10-17.3,33.7-11.9,50.6c10.4,32.4,52.2,40.5,62.9,42.6
	c53.3,10.3,113-19.1,112-39.4C586.6,427.5,557.4,416.8,498.9,395.6z"/>
<linearGradient id="SVGID_4_" gradientUnits="userSpaceOnUse" x1="401.311" y1="588.3246" x2="578.7534" y2="588.3246" gradientTransform="matrix(1 0 0 -1 0 1024)">
	<stop  offset="0" style="stop-color:#3FA9F5"/>
	<stop  offset="5.030000e-02" style="stop-color:#3DA0EE"/>
	<stop  offset="0.5059" style="stop-color:#3056B0"/>
	<stop  offset="0.8321" style="stop-color:#282889"/>
	<stop  offset="0.9949" style="stop-color:#25167A"/>
</linearGradient>
<path class="st3" d="M490.6,403.5c-50.7-18.4-64.1-21.1-74.9-13.5c-14.2,10-17.3,33.7-11.9,50.6c10.4,32.4,52.2,40.5,62.9,42.6
	c53.3,10.3,113-19.1,112-39.4C578.3,435.4,549.1,424.7,490.6,403.5z"/>
<linearGradient id="SVGID_5_" gradientUnits="userSpaceOnUse" x1="630.3806" y1="482.7685" x2="709.0569" y2="482.7685" gradientTransform="matrix(-0.9944 0.1055 0.1055 0.9944 1216.2192 -59.4458)">
	<stop  offset="0" style="stop-color:#8CAD76"/>
	<stop  offset="0.1814" style="stop-color:#83A76B"/>
	<stop  offset="0.4966" style="stop-color:#6C984F"/>
	<stop  offset="0.9055" style="stop-color:#478021"/>
	<stop  offset="0.9949" style="stop-color:#3E7A16"/>
</linearGradient>
<path class="st4" d="M624.6,507.7c-8.4,6.3-23.2,17.4-39.6,12.8c-13.5-3.8-24.8-17.4-22.3-24.4c1.8-5.1,9.2-2.8,18.6-10.6
	c8.8-7.3,6.6-12.8,14.2-18.7c7-5.4,19.7-9.1,30.5-3.2c8.9,4.8,15.3,15.3,13.8,25.3C638.5,497.3,632.1,502.1,624.6,507.7z"/>
<linearGradient id="SVGID_6_" gradientUnits="userSpaceOnUse" x1="638.0206" y1="477.0585" x2="716.6968" y2="477.0585" gradientTransform="matrix(-0.9944 0.1055 0.1055 0.9944 1216.2192 -59.4458)">
	<stop  offset="5.056255e-03" style="stop-color:#3E7A16"/>
	<stop  offset="9.450000e-02" style="stop-color:#478021"/>
	<stop  offset="0.5034" style="stop-color:#6C984F"/>
	<stop  offset="0.8186" style="stop-color:#83A76B"/>
	<stop  offset="1" style="stop-color:#8CAD76"/>
</linearGradient>
<path class="st5" d="M616.4,502.8c-8.4,6.3-23.2,17.4-39.6,12.8c-13.5-3.8-24.8-17.4-22.3-24.4c1.8-5.1,9.2-2.8,18.6-10.6
	c8.8-7.3,6.6-12.8,14.2-18.7c7-5.4,19.7-9.1,30.5-3.2c8.9,4.8,15.3,15.3,13.8,25.3C630.3,492.4,623.9,497.2,616.4,502.8z"/>
</svg>
